<?xml version="1.0" encoding="UTF-8" standalone="no"?>
<!-- Created with Inkscape (http://www.inkscape.org/) -->
<svg
   xmlns:svg="http://www.w3.org/2000/svg"
   xmlns="http://www.w3.org/2000/svg"
   version="1.0"
   width="16pt"
   height="16pt"
   viewBox="0 0 16 16"
   id="svg2">
  <defs
     id="defs48" />
  <g
     id="#919b9cff">
    <path
       d="M 0,0 L 8.15,0 L 7.85,0.97 L 13,1 C 13,1.5 13,2.5 13,3 L 14,3 L 14,8 C 14.5,8 15.5,8 16,8 L 16,9 L 15,9 C 11.67,9 8.33,9 5,9 C 5,10.67 5,12.33 5,14 L 5,15 L 4,15.01 C 4,14.25 4,12.75 4,11.99 C 2.67,11.99 1.33,12 0,12 L 0,0 M 1.18,1.24 L 1.18,1.76 C 2.96,2.3 5.04,2.3 6.82,1.76 L 6.82,1.24 C 5.04,0.7 2.96,0.7 1.18,1.24 M 8.16,2.22 L 8.16,2.78 C 9.39,3.32 10.61,3.32 11.84,2.78 L 11.84,2.22 C 10.61,1.68 9.39,1.68 8.16,2.22 M 2.17,3.17 C 2.89,3.89 2.89,3.89 2.17,3.17 M 2.84,5.84 C 5.89,6.09 8.95,6 12,6.01 L 12,4.99 C 8.95,5 5.89,5.04 2.84,5.15 C 2.84,5.33 2.84,5.67 2.84,5.84 M 2.83,7.83 C 5.85,8.34 8.96,7.63 12,8 L 12,7 C 8.95,7.12 5.85,6.62 2.83,7.17 C 2.83,7.34 2.83,7.66 2.83,7.83 M 2.17,9.17 C 2.89,9.89 2.89,9.89 2.17,9.17 z"
       id="path5"
       style="opacity:1;fill:#919b9c" />
  </g>
  <g
     id="#c0c0c0ff" />
  <g
     id="#fcd267ff">
    <path
       d="M 1.18,1.24 C 2.96,0.7 5.04,0.7 6.82,1.24 L 6.82,1.76 C 5.04,2.3 2.96,2.3 1.18,1.76 L 1.18,1.24 z"
       id="path9"
       style="opacity:1;fill:#fcd267" />
  </g>
  <g
     id="#d1cdbeff">
    <path
       d="M 8.16,2.22 C 9.39,1.68 10.61,1.68 11.84,2.22 L 11.84,2.78 C 10.61,3.32 9.39,3.32 8.16,2.78 L 8.16,2.22 z"
       id="path12"
       style="opacity:1;fill:#d1cdbe" />
  </g>
  <g
     id="#677890ff">
    <path
       d="M 2.17,3.17 C 2.89,3.89 2.89,3.89 2.17,3.17 z"
       id="path15"
       style="opacity:1;fill:#677890" />
    <path
       d="M 2.84,5.84 C 2.84,5.67 2.84,5.33 2.84,5.15 L 2.84,5.84 z"
       id="path17"
       style="opacity:1;fill:#677890" />
    <path
       d="M 2.83,7.83 C 2.83,7.66 2.83,7.34 2.83,7.17 L 2.83,7.83 z"
       id="path19"
       style="opacity:1;fill:#677890" />
    <path
       d="M 2.17,9.17 C 2.89,9.89 2.89,9.89 2.17,9.17 z"
       id="path21"
       style="opacity:1;fill:#677890" />
  </g>
  <g
     id="#ffffffff">
    <path
       d="M 2.84,5.15 C 5.89,5.04 8.95,5 12,4.99 L 12,6.01 C 8.95,6 5.89,6.09 2.84,5.84 L 2.84,5.15 z"
       id="path24"
       style="opacity:1;fill:#ffffff" />
  </g>
  <g
     id="#feffffff">
    <path
       d="M 2.83,7.17 C 5.85,6.62 8.95,7.12 12,7 L 12,8 C 8.96,7.63 5.85,8.34 2.83,7.83 L 2.83,7.17 z"
       id="path27"
       style="opacity:1;fill:#feffff" />
  </g>
  <g
     id="#e4ebf9ff">
    <path
       d="M 5,9 C 8.33,9 11.67,9 15,9 C 15,10.67 15,12.33 15,14 C 11.67,14 8.33,14 5,14 C 5,12.33 5,10.67 5,9 M 6.16,10.12 C 6.51,13.16 9.51,8.69 6.16,10.12 M 9.17,10.24 L 9.17,10.76 C 10.62,11.31 12.38,11.31 13.83,10.76 L 13.83,10.24 C 12.38,9.69 10.62,9.69 9.17,10.24 M 6.16,12.12 C 6.51,15.16 9.51,10.69 6.16,12.12 M 9.17,12.24 L 9.17,12.76 C 10.62,13.31 12.38,13.31 13.83,12.76 L 13.83,12.24 C 12.38,11.69 10.62,11.69 9.17,12.24 z"
       id="path30"
       style="opacity:1;fill:#e4ebf9" />
  </g>
  <g
     id="#354962ff">
    <path
       d="M 15,9 L 16,9 L 16,15 C 12.33,15 8.67,15 5,15 L 5,14 C 8.33,14 11.67,14 15,14 C 15,12.33 15,10.67 15,9 z"
       id="path33"
       style="opacity:1;fill:#354962" />
  </g>
  <g
     id="#333d4bff">
    <path
       d="M 6.16,10.12 C 9.51,8.69 6.51,13.16 6.16,10.12 z"
       id="path36"
       style="opacity:1;fill:#333d4b" />
  </g>
  <g
     id="#788498ff">
    <path
       d="M 9.17,10.24 C 10.62,9.69 12.38,9.69 13.83,10.24 L 13.83,10.76 C 12.38,11.31 10.62,11.31 9.17,10.76 L 9.17,10.24 z"
       id="path39"
       style="opacity:1;fill:#788498" />
  </g>
  <g
     id="#333f50ff">
    <path
       d="M 6.16,12.12 C 9.51,10.69 6.51,15.16 6.16,12.12 z"
       id="path42"
       style="opacity:1;fill:#333f50" />
  </g>
  <g
     id="#778397ff">
    <path
       d="M 9.17,12.24 C 10.62,11.69 12.38,11.69 13.83,12.24 L 13.83,12.76 C 12.38,13.31 10.62,13.31 9.17,12.76 L 9.17,12.24 z"
       id="path45"
       style="opacity:1;fill:#778397" />
  </g>
</svg>
